<?xml version="1.0" encoding="utf-8"?>
<!-- Generator: Adobe Illustrator 22.0.0, SVG Export Plug-In . SVG Version: 6.00 Build 0)  -->
<svg version="1.1" id="Ebene_1" xmlns="http://www.w3.org/2000/svg" xmlns:xlink="http://www.w3.org/1999/xlink" x="0px" y="0px"
	 viewBox="0 0 1904 350" style="enable-background:new 0 0 1904 350;" xml:space="preserve">
<style type="text/css">
	.st0{fill:#FFFFFF;}
</style>
<polygon class="st0" points="1194,1.7 1194,317 1078.5,317 1078.5,143.5 1063,143.5 1047.5,143.5 831,143.5 831,12.5 823,12.5 
	800,12.5 661,12.5 661,12.5 333,163.7 0,163.7 0,194.7 339.8,194.7 339.8,194.7 343,194.7 343,193.2 667.8,43.5 800,43.5 800,143.5 
	800,174.5 831,174.5 1047.5,174.5 1047.5,317 1047.5,317 1047.5,348 1078.5,348 1194,348 1209.5,348 1225,348 1225,32.7 
	1454.1,32.7 1298.4,176.7 1297.9,176.7 1297.9,207.7 1904,207.7 1904,176.7 1344,176.7 1499.8,32.7 1500.1,32.7 1500.1,1.7 "/>
</svg>
